<?xml version="1.0" encoding="UTF-8"?>
<svg id="Capa_1" data-name="Capa 1" xmlns="http://www.w3.org/2000/svg" version="1.1" viewBox="0 0 800 800">
  <defs>
    <style>
      .cls-1, .cls-2 {
        fill: #988974;
        stroke-width: 0px;
      }

      .cls-2 {
        fill-rule: evenodd;
      }
    </style>
  </defs>
  <path class="cls-1" d="M334.3,299c-9.8-9.8-25.6-9.8-35.4,0s-9.8,25.6,0,35.4l65.7,65.7-65.7,65.7c-9.8,9.8-9.8,25.6,0,35.4,9.8,9.8,25.6,9.8,35.4,0l65.7-65.7,65.7,65.7c9.8,9.8,25.6,9.8,35.4,0s9.8-25.6,0-35.4l-65.7-65.7,65.7-65.7c9.8-9.8,9.8-25.6,0-35.4-9.8-9.8-25.6-9.8-35.4,0l-65.7,65.7-65.7-65.7Z"/>
  <path class="cls-2" d="M401.9,41.7h-3.8c-76.9,0-137.2,0-184.3,6.3-48.2,6.5-86.2,20-116,49.8s-43.3,67.8-49.8,116c-6.3,47-6.3,107.4-6.3,184.3v3.8c0,76.9,0,137.2,6.3,184.3,6.5,48.2,20,86.2,49.8,116,29.8,29.8,67.8,43.3,116,49.8,47,6.3,107.4,6.3,184.3,6.3h3.8c76.9,0,137.2,0,184.3-6.3,48.2-6.5,86.2-20,116-49.8,29.8-29.8,43.3-67.8,49.8-116,6.3-47,6.3-107.3,6.3-184.3v-3.8c0-76.9,0-137.2-6.3-184.3-6.5-48.2-20-86.2-49.8-116-29.8-29.8-67.8-43.3-116-49.8-47-6.3-107.3-6.3-184.3-6.3ZM133.2,133.2c19-19,44.7-29.9,87.3-35.6,43.3-5.8,100.3-5.9,179.5-5.9s136.2,0,179.5,5.9c42.6,5.7,68.3,16.6,87.3,35.6,19,19,29.9,44.7,35.6,87.3,5.8,43.3,5.9,100.3,5.9,179.5s0,136.2-5.9,179.5c-5.7,42.6-16.6,68.3-35.6,87.3s-44.7,29.9-87.3,35.6c-43.3,5.8-100.3,5.9-179.5,5.9s-136.2,0-179.5-5.9c-42.6-5.7-68.3-16.6-87.3-35.6-19-19-29.9-44.7-35.6-87.3-5.8-43.3-5.9-100.3-5.9-179.5s0-136.2,5.9-179.5c5.7-42.6,16.6-68.3,35.6-87.3Z"/>
</svg>