<?xml version="1.0" encoding="UTF-8"?>
<svg id="Capa_1" data-name="Capa 1" xmlns="http://www.w3.org/2000/svg" version="1.1" viewBox="0 0 800 800">
  <defs>
    <style>
      .cls-1 {
        fill: #988974;
        fill-rule: evenodd;
        stroke-width: 0px;
      }
    </style>
  </defs>
  <path class="cls-1" d="M691.7,233.3c0,13.8-11.2,25-25,25H133.3c-13.8,0-25-11.2-25-25s11.2-25,25-25h533.3c13.8,0,25,11.2,25,25Z"/>
  <path class="cls-1" d="M691.7,400c0,13.8-11.2,25-25,25H133.3c-13.8,0-25-11.2-25-25s11.2-25,25-25h533.3c13.8,0,25,11.2,25,25Z"/>
  <path class="cls-1" d="M691.7,566.7c0,13.8-11.2,25-25,25H133.3c-13.8,0-25-11.2-25-25s11.2-25,25-25h533.3c13.8,0,25,11.2,25,25Z"/>
</svg>