<?xml version="1.0" encoding="UTF-8"?>
<svg id="Capa_1" data-name="Capa 1" xmlns="http://www.w3.org/2000/svg" version="1.1" viewBox="0 0 800 800">
  <defs>
    <style>
      .cls-1 {
        fill: #988974;
        fill-rule: evenodd;
        stroke-width: 0px;
      }
    </style>
  </defs>
  <path class="cls-1" d="M397.9,41.7h4.2c67.1,0,120.1,0,158.7,5.1,37.9,5,72,16,88.2,47.4,2.3,4.5,4.3,9.2,5.9,14.1,11,33.7-5.3,65.5-28.6,95.7-23.7,30.6-61.1,67.7-108.6,114.7l-82.1,81.3,82.1,81.3c47.4,47,84.9,84.1,108.6,114.7,23.3,30.1,39.6,62,28.6,95.7-1.6,4.8-3.6,9.5-5.9,14.1-16.2,31.4-50.3,42.4-88.2,47.4-38.6,5.1-91.6,5.1-158.7,5.1h-4.2c-67.1,0-120.1,0-158.7-5.1-37.9-5-72-16-88.2-47.4-2.3-4.5-4.3-9.2-5.9-14.1-11-33.7,5.3-65.5,28.6-95.7,23.7-30.6,61.1-67.7,108.6-114.7l82.1-81.3-82.1-81.3c-47.4-47-84.9-84.1-108.6-114.7-23.3-30.1-39.6-62-28.6-95.7,1.6-4.8,3.6-9.5,5.9-14.1,16.2-31.4,50.3-42.4,88.2-47.4,38.6-5.1,91.6-5.1,158.7-5.1ZM400,364.8l81-80.2c49.3-48.8,84.3-83.6,105.7-111.2,22-28.5,23.2-41.6,20.6-49.5-.8-2.3-1.7-4.6-2.8-6.7-3.9-7.6-14.3-16-50.3-20.8-34.9-4.6-84.6-4.7-154.2-4.7s-119.3,0-154.2,4.7c-36,4.7-46.4,13.2-50.3,20.8-1.1,2.2-2.1,4.4-2.8,6.7-2.6,7.9-1.4,21,20.6,49.5,21.4,27.7,56.4,62.5,105.7,111.2l81,80.2ZM400,435.2l-81,80.2c-49.3,48.8-84.3,83.6-105.7,111.2-22,28.5-23.2,41.6-20.6,49.5.8,2.3,1.7,4.6,2.8,6.7,3.9,7.6,14.3,16,50.3,20.8,34.9,4.6,84.6,4.7,154.2,4.7s119.3,0,154.2-4.7c36-4.7,46.4-13.2,50.3-20.8,1.1-2.2,2.1-4.4,2.8-6.7,2.6-7.9,1.4-21-20.6-49.5-21.4-27.7-56.4-62.5-105.7-111.2l-81-80.2Z"/>
</svg>