<?xml version="1.0" encoding="UTF-8"?>
<svg id="Capa_1" data-name="Capa 1" xmlns="http://www.w3.org/2000/svg" version="1.1" viewBox="0 0 800 800">
  <defs>
    <style>
      .cls-1 {
        fill: #988974;
        fill-rule: evenodd;
        stroke-width: 0px;
      }
    </style>
  </defs>
  <path class="cls-1" d="M66.7,200c0-73.6,59.7-133.3,133.3-133.3h400c73.6,0,133.3,59.7,133.3,133.3v400c0,73.6-59.7,133.3-133.3,133.3H200c-73.6,0-133.3-59.7-133.3-133.3V200ZM200,133.3c-36.8,0-66.7,29.8-66.7,66.7v400c0,36.8,29.8,66.7,66.7,66.7h400c36.8,0,66.7-29.8,66.7-66.7V200c0-36.8-29.8-66.7-66.7-66.7H200ZM400,300c-55.2,0-100,44.8-100,100s44.8,100,100,100,100-44.8,100-100-44.8-100-100-100ZM233.3,400c0-92,74.6-166.7,166.7-166.7s166.7,74.6,166.7,166.7-74.6,166.7-166.7,166.7-166.7-74.6-166.7-166.7ZM583.3,266.7c27.6,0,50-22.4,50-50s-22.4-50-50-50-50,22.4-50,50,22.4,50,50,50Z"/>
</svg>