<?xml version="1.0" encoding="UTF-8"?>
<svg id="Capa_1" data-name="Capa 1" xmlns="http://www.w3.org/2000/svg" version="1.1" viewBox="0 0 800 800">
  <defs>
    <style>
      .cls-1, .cls-2 {
        fill: #988974;
        stroke-width: 0px;
      }

      .cls-2 {
        fill-rule: evenodd;
      }
    </style>
  </defs>
  <path class="cls-1" d="M425,300c0-13.8-11.2-25-25-25s-25,11.2-25,25v75h-75c-13.8,0-25,11.2-25,25s11.2,25,25,25h75v75c0,13.8,11.2,25,25,25s25-11.2,25-25v-75h75c13.8,0,25-11.2,25-25s-11.2-25-25-25h-75v-75Z"/>
  <path class="cls-2" d="M400,41.7c-197.9,0-358.3,160.4-358.3,358.3s160.4,358.3,358.3,358.3,358.3-160.4,358.3-358.3S597.9,41.7,400,41.7ZM91.7,400c0-170.3,138-308.3,308.3-308.3s308.3,138,308.3,308.3-138,308.3-308.3,308.3S91.7,570.3,91.7,400Z"/>
</svg>