<?xml version="1.0" encoding="UTF-8"?>
<svg id="Capa_1" data-name="Capa 1" xmlns="http://www.w3.org/2000/svg" version="1.1" viewBox="0 0 800 800">
  <defs>
    <style>
      .cls-1, .cls-2 {
        fill: #988974;
        stroke-width: 0px;
      }

      .cls-2 {
        fill-rule: evenodd;
      }
    </style>
  </defs>
  <path class="cls-2" d="M400,91.7c-170.3,0-308.3,138-308.3,308.3s138,308.3,308.3,308.3,308.3-138,308.3-308.3S570.3,91.7,400,91.7ZM41.7,400c0-197.9,160.4-358.3,358.3-358.3s358.3,160.4,358.3,358.3-160.4,358.3-358.3,358.3S41.7,597.9,41.7,400ZM279.9,518.4c8.2-11.1,23.9-13.4,35-5.2,24.3,18,53.6,28.4,85.1,28.4s60.8-10.4,85.1-28.4c11.1-8.2,26.7-5.9,35,5.2,8.2,11.1,5.9,26.7-5.2,35-32.4,24-72.1,38.2-114.9,38.2s-82.5-14.2-114.9-38.2c-11.1-8.2-13.4-23.9-5.2-35Z"/>
  <path class="cls-1" d="M533.3,350c0,27.6-14.9,50-33.3,50s-33.3-22.4-33.3-50,14.9-50,33.3-50,33.3,22.4,33.3,50Z"/>
  <path class="cls-1" d="M333.3,350c0,27.6-14.9,50-33.3,50s-33.3-22.4-33.3-50,14.9-50,33.3-50,33.3,22.4,33.3,50Z"/>
</svg>