<?xml version="1.0" encoding="UTF-8"?>
<svg id="Capa_1" data-name="Capa 1" xmlns="http://www.w3.org/2000/svg" version="1.1" viewBox="0 0 800 800">
  <defs>
    <style>
      .cls-1 {
        fill: #988974;
        fill-rule: evenodd;
        stroke-width: 0px;
      }
    </style>
  </defs>
  <path class="cls-1" d="M376.4,110.3c-13.1,17.1-27.9,43.6-49.5,82.2l-10.9,19.6c-.7,1.2-1.3,2.4-2,3.5-10,18-18.5,33.3-32.1,43.6-13.8,10.5-30.6,14.2-50.1,18.6-1.3.3-2.5.6-3.8.9l-21.2,4.8c-41.8,9.5-70.3,16-89.8,23.7-19,7.5-23,13.6-24.6,18.6-1.6,5.2-1.7,13.1,9.7,31.2,11.5,18.3,31,41.2,59.5,74.5l14.5,16.9c.8,1,1.7,2,2.5,2.9,13.4,15.7,24.6,28.7,29.8,45.3,5.1,16.4,3.4,33.7,1.4,54.6-.1,1.3-.3,2.6-.4,3.9l-2.2,22.6c-4.3,44.4-7.2,75-6.2,97,1,22,5.6,28.1,9.3,30.9,3.3,2.5,9.4,5.3,29.1-.4,20.1-5.8,46.8-18,86-36l19.9-9.1c1.2-.6,2.4-1.1,3.6-1.7,18.2-8.4,33.9-15.7,51.1-15.7s32.9,7.3,51.1,15.7c1.2.6,2.4,1.1,3.6,1.7l19.9,9.1c39.2,18,65.9,30.3,86,36,19.8,5.7,25.8,2.9,29.1.4,3.7-2.8,8.3-8.9,9.3-30.9,1-22-1.9-52.6-6.2-97l-2.2-22.6c-.1-1.3-.3-2.6-.4-3.9-2.1-20.9-3.7-38.2,1.4-54.6,5.1-16.5,16.3-29.6,29.8-45.3.8-1,1.7-1.9,2.5-2.9l14.5-16.9c28.5-33.3,48-56.2,59.5-74.5,11.4-18.1,11.3-26,9.7-31.2-1.5-4.9-5.5-11.1-24.6-18.6-19.5-7.7-48-14.2-89.8-23.7l-21.2-4.8c-1.3-.3-2.5-.6-3.8-.9-19.5-4.4-36.3-8.2-50.1-18.6-13.6-10.3-22.1-25.6-32.1-43.6-.6-1.2-1.3-2.3-2-3.5l-10.9-19.6c-21.5-38.6-36.3-65-49.5-82.2-13.1-17.1-19.8-18.6-23.6-18.6s-10.5,1.5-23.6,18.6ZM336.7,79.9c15.9-20.7,35.5-38.2,63.3-38.2s47.4,17.5,63.3,38.2c15.6,20.4,32.2,50.1,52.4,86.4l12,21.4c13.1,23.5,16.4,28.5,20.6,31.6,4,3.1,9.3,4.8,34.7,10.5l23.3,5.3c39.2,8.9,71.5,16.2,95,25.4,24.4,9.6,45.8,23.8,54,50.2,8.1,26.2-1,50.2-15.1,72.7-13.7,21.8-35.7,47.5-62.5,78.8l-15.8,18.5c-17.2,20.1-20.8,25.1-22.5,30.5-1.7,5.6-1.6,12,1,38.8l2.4,24.6c4.1,41.9,7.4,76,6.2,102-1.2,26.5-7.2,51.9-29,68.5-22.3,16.9-48.1,15-73.1,7.8-24.2-6.9-54.4-20.9-91.1-37.7l-21.9-10.1c-23.9-11-29-12.8-33.8-12.8s-9.9,1.8-33.8,12.8l-21.9,10.1c-36.7,16.9-66.9,30.8-91.1,37.7-25,7.2-50.9,9.1-73.1-7.8-21.8-16.6-27.9-42-29-68.5-1.2-26,2.2-60.1,6.2-102l2.4-24.6c2.6-26.9,2.8-33.3,1-38.8-1.7-5.4-5.3-10.4-22.5-30.5l-15.8-18.5c-26.8-31.3-48.7-57-62.5-78.8-14.1-22.5-23.3-46.5-15.1-72.7,8.2-26.4,29.6-40.6,54-50.2,23.5-9.3,55.8-16.6,95-25.4l2.1-.5,21.2-4.8c25.4-5.8,30.7-7.5,34.7-10.5,4.2-3.2,7.5-8.2,20.6-31.6l12-21.4c20.2-36.3,36.8-66,52.4-86.4Z"/>
</svg>