<?xml version="1.0" encoding="UTF-8"?>
<svg id="Capa_1" data-name="Capa 1" xmlns="http://www.w3.org/2000/svg" version="1.1" viewBox="0 0 336.255 492.511">
  <g opacity=".4">
    <path d="M130.373,379.394H52.443v-119.509h77.929v119.509ZM54.781,377.056h73.253v-114.833H54.781v114.833Z" fill="#575757" stroke-width="0"/>
  </g>
  <g opacity=".4">
    <path d="M89.273,367.465h-24.208v-95.662h24.208v95.662ZM67.403,365.127h19.532v-90.986h-19.532v90.986Z" fill="#575757" stroke-width="0"/>
  </g>
  <g opacity=".4">
    <path d="M118.828,367.465h-24.203v-95.662h24.203v95.662ZM96.963,365.127h19.527v-90.986h-19.527v90.986Z" fill="#575757" stroke-width="0"/>
  </g>
  <g opacity=".4">
    <path d="M130.231,234.659H49.068V48.603h81.163v186.056ZM51.406,232.321h76.487V50.94H51.406v181.38Z" fill="#575757" stroke-width="0"/>
  </g>
  <g opacity=".4">
    <path d="M86.93,215.274h-28.03V57.479h28.03v157.795ZM61.238,212.936h23.354V59.817h-23.354v153.119Z" fill="#575757" stroke-width="0"/>
  </g>
  <g opacity=".4">
    <path d="M121.668,215.274h-28.039V57.479h28.039v157.795ZM95.968,212.936h23.362V59.817h-23.362v153.119Z" fill="#575757" stroke-width="0"/>
  </g>
  <g opacity=".4">
    <path d="M300.341,151.702h-78.468V48.337h78.468v103.364ZM224.211,149.364h73.792V50.675h-73.792v98.689Z" fill="#575757" stroke-width="0"/>
  </g>
  <g opacity=".4">
    <path d="M300.341,151.712h3.124v4.272h-84.725v-4.272h3.214v-2.338h-5.552v8.95h89.4v-8.95h-5.462" fill="#575757" stroke-width="0"/>
  </g>
  <g opacity=".4">
    <path d="M314.306,484.914h-106.274v-235.856h106.274v235.856ZM210.37,482.576h101.598v-231.179h-101.598v231.179Z" fill="#575757" stroke-width="0"/>
  </g>
  <g opacity=".4">
    <rect x="224.704" y="265.361" width="2.338" height="202.729" fill="#575757" stroke-width="0"/>
  </g>
  <g opacity=".4">
    <rect x="240.094" y="264.944" width="2.338" height="202.731" fill="#575757" stroke-width="0"/>
  </g>
  <g opacity=".4">
    <rect x="254.301" y="265.361" width="2.338" height="202.729" fill="#575757" stroke-width="0"/>
  </g>
  <g opacity=".4">
    <rect x="268.977" y="265.622" width="2.338" height="202.729" fill="#575757" stroke-width="0"/>
  </g>
  <g opacity=".4">
    <rect x="283.422" y="266.584" width="2.338" height="200.092" fill="#575757" stroke-width="0"/>
  </g>
  <g opacity=".4">
    <path d="M259.082,145.861h-27.582V59.594h27.582v86.267ZM233.838,143.523h22.906V61.932h-22.906v81.591Z" fill="#575757" stroke-width="0"/>
  </g>
  <g opacity=".4">
    <polyline points="299.638 264.246 299.638 468.959 297.3 468.959 297.3 264.246" fill="#575757" stroke-width="0"/>
  </g>
  <g opacity=".4">
    <polyline points="297.634 264.246 297.634 266.584 285.76 266.584 283.422 266.584 271.315 266.584 268.977 266.584 256.639 266.584 254.301 266.584 242.432 266.584 240.094 266.584 227.042 266.584 224.672 266.584 224.672 265.361 224.672 264.246" fill="#575757" stroke-width="0"/>
  </g>
  <g opacity=".4">
    <line x1="224.837" y1="467.543" x2="298.323" y2="467.802" fill="#988974" stroke-width="0"/>
    <polygon points="298.317 468.971 224.832 468.711 224.841 466.373 268.978 466.529 271.316 466.538 298.327 466.633 298.317 468.971" fill="#575756" stroke-width="0"/>
  </g>
  <g opacity=".4">
    <path d="M143.022,241.477H36.798v-101.204h106.224v101.204ZM39.136,239.139h101.548v-96.528H39.136v96.528Z" fill="#575757" stroke-width="0"/>
  </g>
  <g opacity=".4">
    <path d="M73.435,142.611h-2.338v1h2.338v-1Z" fill="#575757" stroke-width="0"/>
    <path d="M71.098,143.611v95.528h2.338v-95.528h-2.338Z" fill="#575757" stroke-width="0"/>
  </g>
  <g opacity=".4">
    <rect x="105.987" y="142.611" width="2.338" height="96.528" fill="#575757" stroke-width="0"/>
  </g>
  <g opacity=".4">
    <path d="M291.4,145.529h-27.583V59.657h27.583v85.872ZM266.155,143.19h22.906V61.996h-22.906v81.195Z" fill="#575757" stroke-width="0"/>
  </g>
  <g opacity=".4">
    <polygon points="180.107 205.406 177.769 205.406 180.107 205.14 180.107 205.406" fill="#575757" stroke-width="0"/>
  </g>
  <g opacity=".4">
    <rect x="6.014" y="35.884" width="325.749" height="2.338" fill="#575756" stroke-width="0"/>
  </g>
  <g opacity=".4">
    <rect x="6.014" y="39.053" width="325.558" height="2.338" fill="#575756" stroke-width="0"/>
  </g>
  <g opacity=".4">
    <rect x="6.088" y="29.336" width="325.676" height="2.338" fill="#575756" stroke-width="0"/>
  </g>
  <g opacity=".4">
    <rect x="5.869" y="22.317" width="325.994" height="2.338" fill="#575756" stroke-width="0"/>
  </g>
  <g>
    <path d="M8.535,21.166s11.527-29.56,26.852,0c.639,0,11.384-29.56,27.153,0,1.077,0,10.874-29.56,26.897,0,0,0,9.042-29.56,24.55,0-.516,0,11.946-29.56,29.304,0,0,0,13.357-29.56,30.268,0,.891,0,13.353-29.56,31.153,0,.448,0,14.806-29.56,33.666,0-.279,0,13.074-27.13,30.88,0,.447,0,10.681-32.396,29.377,0,.442,0,16.024-29.829,31.381,0H5.869" fill="#ce6b14" stroke-width="0"/>
    <path d="M88.686,22.335H5.796v-2.338h1.888c1.244-2.85,6.078-12.731,13.414-13.124,4.843-.265,9.666,3.726,14.239,11.864,1.978-3.799,6.503-11.828,13.17-11.877,4.663.077,9.449,4,14.038,12.005.009-.018.02-.041.032-.064,2.044-3.864,6.3-11.91,12.908-11.942h.041c4.581,0,9.053,3.776,13.629,11.526,1.571-3.858,5.213-10.964,10.855-11.494,4.45-.448,9.126,3.443,13.749,11.518,1.713-3.535,5.515-9.061,10.464-10.892,6.368-2.365,12.732,1.439,18.936,11.257,2.063-3.722,7.245-11.553,14.505-11.901,5.53-.183,10.848,3.817,15.935,12.129,2.302-3.749,7.54-12.143,15.289-12.143h.041c5.317.023,10.623,4.105,15.781,12.138,5.188-8.024,10.759-12.106,16.568-12.138h.061c5.758,0,11.43,4.033,16.883,11.987,1.731-3.078,5.523-7.992,10.375-9.964,4.798-1.969,12.164-1.726,20.445,9.919,1.799-4.037,6.153-12.782,13.248-13.189,5.365-.31,10.811,4.202,16.407,13.385,5.663-8.421,11.354-12.527,17.004-12.243,5.595.292,10.757,4.959,15.352,13.877l.876,1.703H88.686ZM300.847,19.997h27.216c-3.925-7.015-8.116-10.681-12.48-10.905-4.722-.274-9.64,3.425-14.735,10.905ZM271.076,19.997h25.495c-5.05-8.243-9.846-12.256-14.144-12.047-4.048.229-7.866,4.284-11.351,12.047ZM240.224,19.997h26.801c-4.991-6.987-10.005-10.229-14.871-9.653-5.854.689-10.227,6.703-11.93,9.653ZM206.852,19.997h29.326c-4.945-7.17-9.93-10.8-14.836-10.8h-.05c-4.909.023-9.765,3.658-14.439,10.8ZM175.732,19.997h26.843c-4.638-7.152-9.225-10.782-13.655-10.8h-.032c-6.311,0-10.997,7.289-13.156,10.8ZM145.166,19.997h26.303c-4.555-7.38-9.243-10.928-13.692-10.791-6.115.292-10.777,7.475-12.611,10.791ZM115.579,19.997h25.588c-4.948-7.836-9.811-11.444-14.526-10.708-5.462.845-9.647,7.64-11.062,10.708ZM91.024,19.997h20.949c-4.146-7.389-8.142-11.087-11.745-10.777-4.372.401-7.74,6.941-9.204,10.777ZM64.59,19.997h22.797c-4.156-7.17-8.145-10.8-11.862-10.8h-.029c-5.209.027-9.022,7.239-10.853,10.7-.019.036-.037.068-.053.1ZM37.317,19.997h23.182c-4.101-7.17-8.108-10.8-11.928-10.8h-.045c-5.402.041-9.467,7.439-11.208,10.8ZM10.261,19.997h23.105c-4.108-7.371-8.205-11.042-12.141-10.791-5.348.283-9.395,7.512-10.964,10.791Z" fill="#575756" stroke-width="0"/>
  </g>
  <g opacity=".4">
    <polygon points="130.373 379.394 133.368 379.394 133.368 383.67 48.643 383.67 48.643 379.394 52.443 379.394 52.443 377.056 46.305 377.056 46.305 386.007 135.706 386.007 135.706 377.056 130.373 377.056 130.373 379.394" fill="#575757" stroke-width="0"/>
  </g>
</svg>