<?xml version="1.0" encoding="UTF-8"?>
<svg id="Capa_1" data-name="Capa 1" xmlns="http://www.w3.org/2000/svg" version="1.1" viewBox="0 0 960 560">
  <g opacity=".4">
    <path d="M355.418,419.435h-77.929v-119.509h77.929v119.509ZM279.827,417.098h73.253v-114.833h-73.253v114.833Z" fill="#575757" stroke-width="0"/>
  </g>
  <g opacity=".4">
    <rect x="291.28" y="313.015" width="21.87" height="93.322" fill="#fff" stroke-width="0"/>
    <path d="M314.319,407.507h-24.208v-95.662h24.208v95.662ZM292.449,405.169h19.532v-90.986h-19.532v90.986Z" fill="#575757" stroke-width="0"/>
  </g>
  <g opacity=".4">
    <rect x="320.84" y="313.015" width="21.865" height="93.322" fill="#fff" stroke-width="0"/>
    <path d="M343.873,407.507h-24.203v-95.662h24.203v95.662ZM322.009,405.169h19.527v-90.986h-19.527v90.986Z" fill="#575757" stroke-width="0"/>
  </g>
  <g opacity=".4">
    <path d="M355.277,274.7h-81.163V88.644h81.163v186.056ZM276.452,272.362h76.487V90.982h-76.487v181.38Z" fill="#575757" stroke-width="0"/>
  </g>
  <g opacity=".4">
    <rect x="285.115" y="98.69" width="25.692" height="155.456" fill="#fff" stroke-width="0"/>
    <path d="M311.976,255.316h-28.03V97.52h28.03v157.795ZM286.284,252.977h23.354V99.858h-23.354v153.119Z" fill="#575757" stroke-width="0"/>
  </g>
  <g opacity=".4">
    <rect x="319.844" y="98.69" width="25.701" height="155.456" fill="#fff" stroke-width="0"/>
    <path d="M346.714,255.316h-28.039V97.52h28.039v157.795ZM321.014,252.977h23.362V99.858h-23.362v153.119Z" fill="#575757" stroke-width="0"/>
  </g>
  <g opacity=".4">
    <path d="M525.387,191.743h-78.468v-103.364h78.468v103.364ZM449.257,189.405h73.792v-98.689h-73.792v98.689Z" fill="#575757" stroke-width="0"/>
  </g>
  <g opacity=".4">
    <path d="M525.387,191.754h3.124v4.272h-84.725v-4.272h3.214v-2.338h-5.552v8.95h89.4v-8.95h-5.462" fill="#575757" stroke-width="0"/>
  </g>
  <g opacity=".4">
    <path d="M539.352,524.955h-106.274v-235.856h106.274v235.856ZM435.415,522.617h101.598v-231.179h-101.598v231.179Z" fill="#575757" stroke-width="0"/>
  </g>
  <g opacity=".4">
    <line x1="450.919" y1="508.132" x2="450.919" y2="305.402" fill="#988974" stroke-width="0"/>
    <rect x="449.75" y="305.402" width="2.338" height="202.729" fill="#575757" stroke-width="0"/>
  </g>
  <g opacity=".4">
    <line x1="466.309" y1="304.985" x2="466.309" y2="507.717" fill="#988974" stroke-width="0"/>
    <rect x="465.14" y="304.985" width="2.338" height="202.731" fill="#575757" stroke-width="0"/>
  </g>
  <g opacity=".4">
    <line x1="480.516" y1="305.402" x2="480.516" y2="508.132" fill="#988974" stroke-width="0"/>
    <rect x="479.347" y="305.402" width="2.338" height="202.729" fill="#575757" stroke-width="0"/>
  </g>
  <g opacity=".4">
    <line x1="495.192" y1="305.663" x2="495.192" y2="508.393" fill="#988974" stroke-width="0"/>
    <rect x="494.023" y="305.663" width="2.338" height="202.729" fill="#575757" stroke-width="0"/>
  </g>
  <g opacity=".4">
    <line x1="509.637" y1="304.985" x2="509.637" y2="507.717" fill="#988974" stroke-width="0"/>
    <rect x="508.468" y="303.985" width="2.338" height="202.731" fill="#575757" stroke-width="0"/>
  </g>
  <g opacity=".4">
    <rect x="457.714" y="100.805" width="25.245" height="83.93" fill="#fff" stroke-width="0"/>
    <path d="M484.128,185.903h-27.582v-86.267h27.582v86.267ZM458.884,183.565h22.906v-81.591h-22.906v81.591Z" fill="#575757" stroke-width="0"/>
  </g>
  <g opacity=".4">
    <line x1="523.515" y1="304" x2="523.515" y2="509" fill="#988974" stroke-width="0"/>
    <polyline points="524.684 304.287 524.684 509 522.346 509 522.346 304.287" fill="#575757" stroke-width="0"/>
  </g>
  <g opacity=".4">
    <line x1="449.718" y1="305.457" x2="522.68" y2="305.457" fill="#988974" stroke-width="0"/>
    <line x1="522.27" y1="304.287" x2="522.346" y2="304.287" fill="#575757" stroke-width="0"/>
    <polyline points="522.68 304.287 522.68 306.625 449.718 306.625 449.718 304.287" fill="#575757" stroke-width="0"/>
  </g>
  <g opacity=".4">
    <line x1="537.073" y1="437.427" x2="536.872" y2="437.427" fill="none" stroke-width="0"/>
  </g>
  <g opacity=".4">
    <line x1="449.883" y1="507.584" x2="523.369" y2="507.844" fill="#988974" stroke-width="0"/>
    <rect x="485.456" y="470.97" width="2.338" height="73.486" transform="translate(-22.811 992.535) rotate(-89.797)" fill="#575756" stroke-width="0"/>
  </g>
  <g opacity=".4">
    <path d="M368.068,281.519h-106.224v-101.204h106.224v101.204ZM264.182,279.181h101.548v-96.528h-101.548v96.528Z" fill="#575757" stroke-width="0"/>
  </g>
  <g opacity=".4">
    <path d="M298.481,182.652h-2.338v1h2.338v-1Z" fill="#575757" stroke-width="0"/>
    <path d="M296.144,183.652v95.528h2.338v-95.528h-2.338Z" fill="#575757" stroke-width="0"/>
  </g>
  <g opacity=".4">
    <rect x="331.033" y="182.652" width="2.338" height="96.528" fill="#575757" stroke-width="0"/>
  </g>
  <g opacity=".4">
    <rect x="490.032" y="100.869" width="25.244" height="83.532" fill="#fff" stroke-width="0"/>
    <path d="M516.446,185.57h-27.583v-85.872h27.583v85.872ZM491.201,183.232h22.906v-81.195h-22.906v81.195Z" fill="#575757" stroke-width="0"/>
  </g>
  <g opacity=".4">
    <polygon points="405.153 245.448 402.814 245.448 405.153 245.182 405.153 245.448" fill="#575757" stroke-width="0"/>
  </g>
  <g opacity=".4">
    <rect x="231.06" y="75.926" width="325.749" height="2.338" fill="#575756" stroke-width="0"/>
  </g>
  <g opacity=".4">
    <rect x="231.06" y="79.095" width="325.558" height="2.338" fill="#575756" stroke-width="0"/>
  </g>
  <g opacity=".4">
    <rect x="231.134" y="69.377" width="325.676" height="2.338" fill="#575756" stroke-width="0"/>
  </g>
  <g opacity=".4">
    <rect x="230.915" y="62.359" width="325.994" height="2.338" fill="#575756" stroke-width="0"/>
  </g>
  <g>
    <path d="M233.581,61.208s11.527-29.56,26.852,0c.639,0,11.384-29.56,27.153,0,1.077,0,10.874-29.56,26.897,0,0,0,9.042-29.56,24.55,0-.516,0,11.946-29.56,29.304,0,0,0,13.357-29.56,30.268,0,.891,0,13.353-29.56,31.153,0,.448,0,14.806-29.56,33.666,0-.279,0,13.074-27.13,30.88,0,.447,0,10.681-32.396,29.377,0,.442,0,16.024-29.829,31.381,0H230.915" fill="#ce6b14" stroke-width="0"/>
    <path d="M313.732,62.377h-82.891v-2.338h1.888c1.244-2.85,6.078-12.731,13.414-13.124,4.843-.265,9.666,3.726,14.239,11.864,1.978-3.799,6.503-11.828,13.17-11.877,4.663.077,9.449,4,14.038,12.005.009-.018.02-.041.032-.064,2.044-3.864,6.3-11.91,12.908-11.942h.041c4.581,0,9.053,3.776,13.629,11.526,1.571-3.858,5.213-10.964,10.855-11.494,4.45-.448,9.126,3.443,13.749,11.518,1.713-3.535,5.515-9.061,10.464-10.892,6.368-2.365,12.732,1.439,18.936,11.257,2.063-3.722,7.245-11.553,14.505-11.901,5.53-.183,10.848,3.817,15.935,12.129,2.302-3.749,7.54-12.143,15.289-12.143h.041c5.317.023,10.623,4.105,15.781,12.138,5.188-8.024,10.759-12.106,16.568-12.138h.061c5.758,0,11.43,4.033,16.883,11.987,1.731-3.078,5.523-7.992,10.375-9.964,4.798-1.969,12.164-1.726,20.445,9.919,1.799-4.037,6.153-12.782,13.248-13.189,5.365-.31,10.811,4.202,16.407,13.385,5.663-8.421,11.354-12.527,17.004-12.243,5.595.292,10.757,4.959,15.352,13.877l.876,1.703h-243.244ZM525.893,60.039h27.216c-3.925-7.015-8.116-10.681-12.48-10.905-4.722-.274-9.64,3.425-14.735,10.905ZM496.122,60.039h25.495c-5.05-8.243-9.846-12.256-14.144-12.047-4.048.229-7.866,4.284-11.351,12.047ZM465.27,60.039h26.801c-4.991-6.987-10.005-10.229-14.871-9.653-5.854.689-10.227,6.703-11.93,9.653ZM431.897,60.039h29.326c-4.945-7.17-9.93-10.8-14.836-10.8h-.05c-4.909.023-9.765,3.658-14.439,10.8ZM400.778,60.039h26.843c-4.638-7.152-9.225-10.782-13.655-10.8h-.032c-6.311,0-10.997,7.289-13.156,10.8ZM370.212,60.039h26.303c-4.555-7.38-9.243-10.928-13.692-10.791-6.115.292-10.777,7.475-12.611,10.791ZM340.625,60.039h25.588c-4.948-7.836-9.811-11.444-14.526-10.708-5.462.845-9.647,7.64-11.062,10.708ZM316.07,60.039h20.949c-4.146-7.389-8.142-11.087-11.745-10.777-4.372.401-7.74,6.941-9.204,10.777ZM289.636,60.039h22.797c-4.156-7.17-8.145-10.8-11.862-10.8h-.029c-5.209.027-9.022,7.239-10.853,10.7-.019.036-.037.068-.053.1ZM262.363,60.039h23.182c-4.101-7.17-8.108-10.8-11.928-10.8h-.045c-5.402.041-9.467,7.439-11.208,10.8ZM235.307,60.039h23.105c-4.108-7.371-8.205-11.042-12.141-10.791-5.348.283-9.395,7.512-10.964,10.791Z" fill="#575756" stroke-width="0"/>
  </g>
  <g opacity=".4">
    <polygon points="355.418 419.436 358.414 419.436 358.414 423.711 273.689 423.711 273.689 419.436 277.489 419.436 277.489 417.098 271.351 417.098 271.351 426.049 360.752 426.049 360.752 417.098 355.418 417.098 355.418 419.436" fill="#575757" stroke-width="0"/>
  </g>
  <line x1="217" y1="43.763" x2="217" y2="43.763" fill="none" stroke-width="0"/>
</svg>