<?xml version="1.0" encoding="utf-8"?>
<!-- Generator: Adobe Illustrator 16.0.0, SVG Export Plug-In . SVG Version: 6.00 Build 0)  -->
<!DOCTYPE svg PUBLIC "-//W3C//DTD SVG 1.1//EN" "http://www.w3.org/Graphics/SVG/1.1/DTD/svg11.dtd">
<svg version="1.1" id="Capa_1" xmlns="http://www.w3.org/2000/svg" xmlns:xlink="http://www.w3.org/1999/xlink" x="0px" y="0px"
	 width="960px" height="560px" viewBox="0 0 960 560" enable-background="new 0 0 960 560" xml:space="preserve">
<g>
	<path fill="#575757" d="M355.418,419.436h-77.929V299.927h77.929V419.436z M279.827,417.098h73.253V302.265h-73.253V417.098z"/>
</g>
<g>
	<rect x="291.28" y="313.015" fill="#FFFFFF" width="21.87" height="93.322"/>
	<path fill="#575757" d="M314.319,407.507h-24.208v-95.662h24.208V407.507z M292.449,405.169h19.532v-90.986h-19.532V405.169z"/>
</g>
<g>
	<rect x="320.84" y="313.015" fill="#FFFFFF" width="21.865" height="93.322"/>
	<path fill="#575757" d="M343.874,407.507h-24.203v-95.662h24.203V407.507z M322.009,405.169h19.527v-90.986h-19.527V405.169z"/>
</g>
<g>
	<path fill="#575757" d="M355.277,274.7h-81.163V88.644h81.163V274.7z M276.452,272.362h76.487V90.982h-76.487V272.362z"/>
</g>
<g>
	<rect x="285.115" y="98.69" fill="#FFFFFF" width="25.692" height="155.456"/>
	<path fill="#575757" d="M311.976,255.316h-28.03V97.521h28.03V255.316z M286.284,252.978h23.354V99.858h-23.354V252.978z"/>
</g>
<g>
	<rect x="319.844" y="98.69" fill="#FFFFFF" width="25.701" height="155.456"/>
	<path fill="#575757" d="M346.714,255.316h-28.039V97.521h28.039V255.316z M321.014,99.858v153.119h23.362V99.858"/>
</g>
<g>
	<path fill="#575757" d="M525.387,191.743h-78.468V88.379h78.468V191.743z M449.257,189.405h73.792V90.717h-73.792V189.405z"/>
</g>
<g>
	<path fill="#575757" d="M530.849,198.366h-89.4v-8.95h89.4V198.366z M443.786,196.026h84.725v-4.272h-84.725V196.026z"/>
</g>
<g>
	<path fill="#575757" d="M539.352,524.955H433.078V289.099h106.274V524.955z M435.416,522.617h101.598V291.438H435.416V522.617z"/>
</g>
<g>
	<path fill="#575757" d="M539.352,524.955H433.078V289.099h106.274V524.955z M435.416,522.617h101.598V291.438H435.416V522.617z"/>
</g>
<g>
	<line fill="#988974" x1="450.919" y1="506.505" x2="450.919" y2="306.63"/>
	<rect x="449.75" y="306.63" fill="#575757" width="2.338" height="199.875"/>
</g>
<g>
	<line fill="#988974" x1="466.309" y1="306.63" x2="466.309" y2="506.463"/>
	<rect x="465.14" y="306.63" fill="#575757" width="2.338" height="199.833"/>
</g>
<g>
	<line fill="#988974" x1="480.516" y1="306.63" x2="480.516" y2="506.505"/>
	<rect x="479.347" y="306.63" fill="#575757" width="2.338" height="199.875"/>
</g>
<g>
	<line fill="#988974" x1="495.192" y1="306.63" x2="495.192" y2="506.588"/>
	<rect x="494.023" y="306.63" fill="#575757" width="2.338" height="199.958"/>
</g>
<g>
	<line fill="#988974" x1="509.637" y1="306.63" x2="509.637" y2="506.546"/>
	<rect x="508.468" y="306.63" fill="#575757" width="2.338" height="199.916"/>
</g>
<g>
	<rect x="457.714" y="100.805" fill="#FFFFFF" width="25.245" height="83.93"/>
	<path fill="#575757" d="M484.128,185.903h-27.583V99.636h27.583V185.903z M458.884,183.565h22.906v-81.591h-22.906V183.565z"/>
</g>
<g>
	<line fill="#988974" x1="523.515" y1="306.63" x2="523.515" y2="506.588"/>
	<rect x="522.346" y="306.63" fill="#575757" width="2.338" height="199.958"/>
</g>
<g>
	<line fill="#988974" x1="449.708" y1="305.457" x2="524.667" y2="305.457"/>
	<rect x="449.708" y="304.287" fill="#575757" width="74.958" height="2.338"/>
</g>
<g>
	<line fill="none" x1="537.073" y1="437.427" x2="536.872" y2="437.427"/>
</g>
<g>
	<line fill="#988974" x1="449.833" y1="507.542" x2="524.667" y2="507.802"/>
	
		<rect x="449.833" y="506.502" transform="matrix(1 0.0035 -0.0035 1 1.7719 -1.6946)" fill="#575756" width="74.833" height="2.338"/>
</g>
<g>
	<rect x="296.144" y="182.566" fill="#575757" width="2.338" height="96.628"/>
</g>
<path fill="#575757" d="M262,180v102h106V180H262z M264,183h67v96h-67V183z M366,279h-33v-96h33V279z"/>
<g>
	<rect x="490.032" y="100.869" fill="#FFFFFF" width="25.244" height="83.532"/>
	<path fill="#575757" d="M516.446,185.57h-27.583V99.699h27.583V185.57z M491.201,183.232h22.906v-81.195h-22.906V183.232z"/>
</g>
<g>
	<polygon fill="#575757" points="405.153,245.448 402.814,245.448 405.153,245.182 	"/>
</g>
<g>
	<rect x="231.06" y="75.926" fill="#575756" width="325.75" height="2.338"/>
</g>
<g>
	<rect x="231.06" y="79.095" fill="#575756" width="325.558" height="2.338"/>
</g>
<g>
	<rect x="231.134" y="69.377" fill="#575756" width="325.676" height="2.338"/>
</g>
<g>
	<rect x="230.915" y="62.359" fill="#575756" width="325.994" height="2.338"/>
</g>
<g>
	<path fill="#CE6B14" d="M233.581,61.208c0,0,11.527-29.56,26.852,0c0.639,0,11.384-29.56,27.153,0c1.077,0,10.874-29.56,26.897,0
		c0,0,9.042-29.56,24.55,0c-0.516,0,11.946-29.56,29.304,0c0,0,13.357-29.56,30.268,0c0.891,0,13.353-29.56,31.153,0
		c0.448,0,14.806-29.56,33.666,0c-0.279,0,13.074-27.13,30.88,0c0.447,0,10.681-32.396,29.377,0c0.442,0,16.024-29.829,31.381,0
		H230.915"/>
	<path fill="#575756" d="M313.732,62.376h-82.891v-2.338h1.888c1.244-2.85,6.078-12.731,13.414-13.125
		c4.843-0.265,9.666,3.727,14.239,11.864c1.978-3.799,6.503-11.828,13.17-11.877c4.663,0.077,9.449,4,14.038,12.005
		c0.009-0.018,0.021-0.041,0.032-0.063c2.044-3.864,6.3-11.91,12.908-11.942c0.014,0,0.027,0,0.041,0
		c4.581,0,9.053,3.776,13.629,11.526c1.571-3.858,5.213-10.964,10.855-11.494c4.45-0.448,9.126,3.443,13.75,11.518
		c1.713-3.535,5.515-9.061,10.464-10.892c6.368-2.365,12.732,1.438,18.936,11.257c2.063-3.722,7.245-11.553,14.505-11.901
		c5.53-0.183,10.848,3.817,15.935,12.129c2.302-3.75,7.54-12.143,15.289-12.143c0.014,0,0.028,0,0.042,0
		c5.317,0.023,10.624,4.105,15.781,12.138c5.188-8.024,10.759-12.106,16.568-12.138c0.021,0,0.041,0,0.062,0
		c5.758,0,11.43,4.033,16.883,11.987c1.731-3.078,5.523-7.992,10.375-9.964c4.798-1.969,12.164-1.727,20.445,9.918
		c1.799-4.037,6.153-12.782,13.248-13.189c5.365-0.311,10.812,4.202,16.407,13.385c5.663-8.421,11.354-12.527,17.004-12.243
		c5.595,0.292,10.757,4.959,15.352,13.877l0.876,1.703H369.05h-1.425h-52.333H313.732z M525.893,60.039h27.216
		c-3.925-7.015-8.116-10.681-12.48-10.905C535.906,48.859,530.988,52.559,525.893,60.039z M496.122,60.039h25.495
		c-5.05-8.243-9.846-12.256-14.145-12.047C503.425,48.22,499.606,52.275,496.122,60.039z M465.27,60.039h26.801
		c-4.991-6.987-10.005-10.229-14.871-9.653C471.346,51.075,466.974,57.088,465.27,60.039z M431.897,60.039h29.326
		c-4.945-7.17-9.93-10.8-14.836-10.8c-0.018,0-0.034,0-0.05,0C441.428,49.262,436.572,52.896,431.897,60.039z M400.778,60.039
		h26.843c-4.638-7.152-9.225-10.782-13.655-10.8c-0.009,0-0.021,0-0.032,0C407.624,49.238,402.938,56.527,400.778,60.039z
		 M370.212,60.039h26.303c-4.555-7.38-9.243-10.928-13.692-10.791C376.708,49.54,372.045,56.723,370.212,60.039z M340.625,60.039
		h25.588c-4.948-7.836-9.812-11.444-14.526-10.708C346.225,50.175,342.04,56.97,340.625,60.039z M316.07,60.039h20.949
		c-4.146-7.389-8.142-11.087-11.745-10.777C320.901,49.663,317.534,56.203,316.07,60.039z M289.636,60.039h22.797
		c-4.156-7.17-8.145-10.8-11.862-10.8c-0.008,0-0.021,0-0.029,0c-5.209,0.027-9.022,7.239-10.853,10.7
		C289.67,59.975,289.652,60.007,289.636,60.039z M262.363,60.039h23.182c-4.101-7.17-8.108-10.8-11.928-10.8
		c-0.016,0-0.03,0-0.045,0C268.169,49.279,264.104,56.678,262.363,60.039z M235.307,60.039h23.105
		c-4.108-7.371-8.205-11.042-12.141-10.791C240.924,49.531,236.876,56.76,235.307,60.039z"/>
</g>
<g>
	<path fill="#575757" d="M361.002,426.246h-89.4v-8.951h89.4V426.246z M273.939,423.908h84.725v-4.275h-84.725V423.908z"/>
</g>
<line fill="none" x1="217" y1="43.763" x2="217" y2="43.763"/>
</svg>
