<?xml version="1.0" encoding="UTF-8"?>
<svg id="Capa_1" data-name="Capa 1" xmlns="http://www.w3.org/2000/svg" version="1.1" xmlns:xlink="http://www.w3.org/1999/xlink" viewBox="0 0 726.409 16">
  <defs>
    <clipPath id="clippath">
      <rect x="-46.272" width="841.89" height="16" fill="none" stroke-width="0"/>
    </clipPath>
    <clipPath id="clippath-1">
      <rect x="-46.272" width="841.89" height="16" fill="none" stroke-width="0"/>
    </clipPath>
  </defs>
  <g clip-path="url(#clippath)">
    <g clip-path="url(#clippath-1)">
      <path d="M533.819,9.363c.357.943-1.127,1.953-5.135,2.724-2.402.461-5.525.539-8.502.589-10.15.172-20.326.054-30.49.067-4.613.006-9.223-.218-13.848-.281-7.121-.098-14.281-.178-21.379.013-10.392.281-13.209-1.285-13.056-2.938.162-1.75,3.717-3.181,11.873-3.848,7.26-.594,14.441-.762,22.078-.422,7.73.344,15.604.492,23.535.427,6.348-.053,12.719-.104,19.055-.04,3.525.037,7.021.295,10.49.489,2.33.131,3.576.539,3.99,1.043.534.648.844,1.303,1.389,2.177" fill="#f0e9e3" stroke-width="0"/>
      <path d="M635.903,11.965c-7.289.313-14.529.735-21.885.908-5.234.122-10.816.134-15.886-.249-6.297-.476-7.93-1.732-5.532-3.371,2.002-1.369,6.633-1.769,12.358-1.874,2.621-.049,5.199-.209,7.818-.259,8.205-.157,16.332.143,24.404.366,7.661.21,11.473,1.886,8.721,3.51-.705.413-2.814.441-4.359.586-1.791.169-3.776.233-5.678.341.014.014.025.027.039.042" fill="#ce6b14" stroke-width="0"/>
      <path d="M551.423,6.764c8.084.216,16.271.007,24.352.326,5.361.211,8.345,1.306,6.22,2.485-1.271.704-3.181,1.206-7.066,1.248-8.514.089-17.014.251-25.52.384-3.759.059-6.843-.165-9.111-.911-2.738-.902-2.494-1.79-.043-2.654,1.916-.675,5.24-.8,8.522-.875.873-.021,1.763-.003,2.646-.003" fill="#988974" stroke-width="0"/>
      <path d="M663.774,12.116c-5.033.056-13.32-1.42-9.754-3.378,1.789-.982,7.731-1.812,12.317-1.638,2.384.091,4.691.203,6.955.415,6.507.615,9.054,1.897,6.832,3.405-.993.673-3.315.925-5.885,1.031-2.955.123-6.028.103-10.465.165" fill="#b7d26c" stroke-width="0"/>
      <path d="M421.878,11.624c-5.457.102-10.104-.24-14.051-1.125-2.599-.581-2.769-1.229-1.775-1.937.871-.62,3.512-.994,6.896-1.008,5.701-.027,11.276.244,16.899.394,2.564.07,3.885.438,4.056,1.03.163.558-.212,1.099-.875,1.627-.736.59-3.035.769-5.332.879-1.898.09-3.877.097-5.818.14" fill="#5b762a" stroke-width="0"/>
      <path d="M706.692,11.561c-3.756.005-7.562.106-10.813-.51-2.22-.424-3.333-.894-2.828-1.55,1.467-1.903,3.387-2.174,11.668-1.628,2.807.188,5.602.384,8.409.571,3.617.242,5.363.965,4.843,2.013-.324.655-2.795,1.073-6.582,1.102-1.564.012-3.133.002-4.697.002" fill="#5b762a" stroke-width="0"/>
      <path d="M389.816,10.29c-5.408-.017-11.365.495-17.504.003-3.462-.275-5.87-1.55-3.642-2.216,1.359-.408,3.767-.372,5.73-.343,3.967.06,7.838-.095,11.75-.15,5.055-.068,8.947,1.054,7.499,2.16-.503.385-2.005.366-3.833.546" fill="#b7d26c" stroke-width="0"/>
      <path d="M177.172,7.966c.358.942-1.125,1.953-5.133,2.723-2.404.461-5.525.539-8.503.59-10.149.171-20.327.054-30.489.067-4.613.005-9.223-.218-13.849-.282-7.122-.097-14.28-.177-21.378.014-10.394.28-13.211-1.285-13.058-2.938.16-1.75,3.719-3.181,11.873-3.848,7.261-.595,14.442-.763,22.078-.422,7.732.344,15.605.492,23.537.427,6.348-.054,12.717-.105,19.053-.04,3.525.037,7.022.295,10.492.489,2.328.131,3.574.538,3.989,1.043.534.647.845,1.303,1.388,2.177" fill="#ce6b14" stroke-width="0"/>
      <path d="M279.256,10.568c-7.289.314-14.528.736-21.883.908-5.234.122-10.816.134-15.887-.249-6.297-.475-7.929-1.731-5.531-3.371,2-1.369,6.631-1.768,12.358-1.874,2.62-.049,5.197-.209,7.818-.259,8.205-.157,16.332.144,24.403.366,7.661.211,11.472,1.886,8.72,3.51-.703.414-2.813.442-4.358.586-1.79.169-3.777.234-5.677.341.013.015.024.028.037.042" fill="#f0e9e3" stroke-width="0"/>
      <path d="M194.778,5.367c8.083.216,16.271.007,24.352.326,5.36.212,8.345,1.306,6.218,2.486-1.27.704-3.179,1.206-7.066,1.248-8.514.089-17.014.251-25.518.383-3.759.059-6.843-.165-9.111-.911-2.74-.902-2.495-1.79-.044-2.654,1.916-.675,5.241-.8,8.521-.875.875-.02,1.765-.003,2.648-.003" fill="#b7d26c" stroke-width="0"/>
      <path d="M307.127,10.719c-5.033.055-13.319-1.42-9.754-3.378,1.791-.983,7.732-1.813,12.317-1.639,2.386.092,4.693.203,6.956.415,6.506.615,9.054,1.898,6.832,3.405-.994.673-3.314.926-5.884,1.032-2.957.123-6.029.103-10.467.165" fill="#988974" stroke-width="0"/>
      <path d="M65.23,10.228c-5.458.101-10.103-.241-14.051-1.125-2.598-.581-2.768-1.229-1.774-1.938.87-.62,3.512-.994,6.896-1.008,5.701-.027,11.276.245,16.898.395,2.565.069,3.885.437,4.057,1.03.161.558-.213,1.099-.875,1.626-.737.591-3.035.77-5.334.879-1.897.091-3.875.098-5.817.141" fill="#988974" stroke-width="0"/>
      <path d="M350.047,10.164c-3.757.005-7.562.107-10.813-.51-2.221-.423-3.333-.893-2.829-1.549,1.466-1.904,3.388-2.174,11.667-1.628,2.809.187,5.603.383,8.41.571,3.618.241,5.364.965,4.844,2.013-.324.655-2.796,1.073-6.583,1.101-1.563.013-3.131.002-4.696.002" fill="#ce6b14" stroke-width="0"/>
      <path d="M33.168,8.893c-5.408-.018-11.367.495-17.504.003-3.463-.276-5.871-1.55-3.643-2.216,1.358-.408,3.768-.372,5.729-.343,7.967.12,11.838-.152,11.75-.15,5.057-.069,8.947,1.053,7.5,2.16-.504.385-2.006.366-3.832.546" fill="#f0e9e3" stroke-width="0"/>
    </g>
  </g>
</svg>