<?xml version="1.0" encoding="utf-8"?>
<!-- Generator: Adobe Illustrator 16.0.0, SVG Export Plug-In . SVG Version: 6.00 Build 0)  -->
<!DOCTYPE svg PUBLIC "-//W3C//DTD SVG 1.1//EN" "http://www.w3.org/Graphics/SVG/1.1/DTD/svg11.dtd">
<svg version="1.1" xmlns="http://www.w3.org/2000/svg" xmlns:xlink="http://www.w3.org/1999/xlink" x="0px" y="0px"
	 width="76.333px" height="40px" viewBox="0 0 76.333 40" enable-background="new 0 0 76.333 40" xml:space="preserve">
<g id="Capa_2">
	<g>
		<g>
			<path fill="#5B762A" d="M19.607,5.168h1.03v8.851h5.457v0.89h-6.487V5.168z"/>
		</g>
		<g>
			<path fill="#5B762A" d="M34.724,7.589v7.319h-0.947v-1.444c-0.296,0.49-0.689,0.866-1.177,1.127
				c-0.486,0.258-1.035,0.389-1.647,0.389c-0.688,0-1.308-0.158-1.866-0.473c-0.557-0.316-0.993-0.755-1.309-1.321
				c-0.316-0.567-0.473-1.213-0.473-1.936c0-0.726,0.157-1.37,0.473-1.935c0.316-0.567,0.752-1.005,1.309-1.316
				c0.558-0.309,1.178-0.467,1.866-0.467c0.593,0,1.128,0.125,1.607,0.369c0.477,0.246,0.871,0.604,1.176,1.078V7.589H34.724z
				 M32.42,13.749c0.413-0.238,0.737-0.572,0.975-1.009c0.237-0.437,0.354-0.935,0.354-1.49s-0.116-1.055-0.354-1.489
				c-0.238-0.438-0.563-0.773-0.975-1.01c-0.413-0.239-0.874-0.354-1.384-0.354c-0.521,0-0.987,0.114-1.401,0.354
				c-0.413,0.236-0.737,0.572-0.973,1.01c-0.236,0.435-0.355,0.934-0.355,1.489s0.12,1.054,0.355,1.49
				c0.235,0.437,0.56,0.771,0.973,1.009c0.414,0.235,0.88,0.353,1.401,0.353C31.546,14.102,32.007,13.984,32.42,13.749z"/>
		</g>
		<g>
			<path fill="#B7D208" d="M6.851,26.469c-1.142-0.63-2.039-1.501-2.689-2.616c-0.65-1.116-0.976-2.364-0.976-3.748
				c0-1.382,0.326-2.628,0.976-3.744c0.65-1.116,1.549-1.989,2.699-2.618c1.15-0.628,2.436-0.943,3.858-0.943
				c1.069,0,2.053,0.179,2.958,0.532c0.902,0.356,1.668,0.877,2.296,1.562l-0.962,0.964c-1.123-1.137-2.54-1.703-4.249-1.703
				c-1.137,0-2.171,0.26-3.1,0.779C6.73,15.452,6,16.164,5.474,17.067c-0.526,0.906-0.79,1.919-0.79,3.037
				c0,1.123,0.264,2.136,0.79,3.041C6,24.047,6.73,24.757,7.661,25.278c0.929,0.521,1.963,0.781,3.1,0.781
				c1.725,0,3.14-0.574,4.249-1.726l0.962,0.965c-0.628,0.685-1.397,1.208-2.308,1.569c-0.91,0.363-1.898,0.546-2.965,0.546
				C9.277,27.414,7.994,27.1,6.851,26.469z"/>
		</g>
		<g>
			<path fill="#B7D208" d="M28.289,16.494V27.29h-1.395v-2.134c-0.437,0.725-1.016,1.279-1.735,1.662
				c-0.718,0.382-1.529,0.573-2.434,0.573c-1.012,0-1.929-0.232-2.75-0.696c-0.82-0.466-1.465-1.116-1.928-1.95
				c-0.466-0.834-0.698-1.787-0.698-2.854c0-1.067,0.232-2.018,0.698-2.853c0.463-0.834,1.108-1.481,1.928-1.941
				c0.821-0.456,1.738-0.688,2.75-0.688c0.877,0,1.667,0.183,2.373,0.543c0.705,0.365,1.283,0.896,1.734,1.593v-2.051H28.289z
				 M24.894,25.575c0.609-0.35,1.085-0.844,1.436-1.488c0.349-0.642,0.523-1.373,0.523-2.195c0-0.82-0.175-1.554-0.523-2.198
				c-0.35-0.64-0.827-1.139-1.436-1.487c-0.611-0.348-1.291-0.524-2.044-0.524c-0.767,0-1.454,0.177-2.062,0.524
				c-0.608,0.349-1.088,0.848-1.437,1.487c-0.351,0.645-0.524,1.378-0.524,2.198c0,0.822,0.173,1.554,0.524,2.195
				c0.349,0.645,0.828,1.139,1.437,1.488c0.608,0.351,1.295,0.524,2.062,0.524C23.603,26.1,24.283,25.926,24.894,25.575z"/>
		</g>
		<g>
			<path fill="#B7D208" d="M32.734,27.014c-0.801-0.255-1.427-0.572-1.878-0.954l0.656-1.153c0.452,0.359,1.021,0.647,1.705,0.875
				c0.684,0.226,1.396,0.339,2.135,0.339c0.985,0,1.713-0.154,2.187-0.461c0.471-0.308,0.708-0.741,0.708-1.306
				c0-0.396-0.131-0.707-0.392-0.934c-0.26-0.224-0.587-0.395-0.985-0.514c-0.396-0.114-0.921-0.227-1.579-0.337
				c-0.877-0.165-1.583-0.333-2.115-0.504c-0.534-0.172-0.99-0.462-1.365-0.872c-0.378-0.411-0.566-0.978-0.566-1.702
				c0-0.903,0.377-1.644,1.13-2.218c0.751-0.575,1.799-0.864,3.141-0.864c0.698,0,1.395,0.095,2.092,0.278
				c0.699,0.185,1.273,0.427,1.724,0.729l-0.636,1.172c-0.89-0.614-1.948-0.926-3.181-0.926c-0.933,0-1.632,0.163-2.105,0.493
				c-0.473,0.328-0.708,0.759-0.708,1.294c0,0.411,0.133,0.737,0.401,0.985c0.267,0.245,0.597,0.427,0.993,0.544
				c0.397,0.116,0.945,0.236,1.644,0.357c0.862,0.164,1.553,0.329,2.073,0.494c0.519,0.163,0.965,0.444,1.333,0.842
				c0.371,0.396,0.555,0.942,0.555,1.641c0,0.946-0.394,1.694-1.18,2.249c-0.787,0.556-1.879,0.83-3.273,0.83
				C34.374,27.392,33.535,27.267,32.734,27.014z"/>
		</g>
		<g>
			<path fill="#B7D208" d="M42.371,13.823c-0.205-0.205-0.307-0.451-0.307-0.737c0-0.273,0.102-0.514,0.307-0.717
				c0.207-0.209,0.46-0.309,0.759-0.309c0.302,0,0.555,0.098,0.761,0.297c0.205,0.199,0.308,0.435,0.308,0.708
				c0,0.303-0.104,0.553-0.308,0.758c-0.206,0.208-0.458,0.309-0.761,0.309C42.831,14.132,42.578,14.031,42.371,13.823z
				 M42.392,16.494h1.458V27.29h-1.458V16.494z"/>
		</g>
		<g>
			<path fill="#B7D208" d="M48.704,26.572c-0.527-0.549-0.792-1.307-0.792-2.279V12.061h1.459v12.11c0,0.643,0.151,1.13,0.451,1.466
				c0.301,0.336,0.753,0.503,1.354,0.503c0.383,0,0.712-0.061,0.986-0.186l0.102,1.211c-0.423,0.152-0.862,0.227-1.313,0.227
				C49.98,27.392,49.229,27.117,48.704,26.572z"/>
		</g>
		<g>
			<path fill="#B7D208" d="M55.045,26.572c-0.526-0.549-0.791-1.307-0.791-2.279V12.061h1.458v12.11c0,0.643,0.152,1.13,0.452,1.466
				c0.301,0.336,0.752,0.503,1.355,0.503c0.384,0,0.711-0.061,0.986-0.186l0.101,1.211c-0.423,0.152-0.861,0.227-1.313,0.227
				C56.32,27.392,55.573,27.117,55.045,26.572z"/>
		</g>
		<g>
			<path fill="#B7D208" d="M70.246,16.494V27.29h-1.394v-2.134c-0.439,0.725-1.018,1.279-1.736,1.662
				c-0.718,0.382-1.53,0.573-2.431,0.573c-1.012,0-1.931-0.232-2.752-0.696c-0.822-0.466-1.463-1.116-1.929-1.95
				c-0.466-0.834-0.698-1.787-0.698-2.854c0-1.067,0.231-2.018,0.698-2.853c0.466-0.834,1.107-1.481,1.929-1.941
				c0.821-0.456,1.741-0.688,2.752-0.688c0.874,0,1.664,0.183,2.371,0.543c0.703,0.365,1.282,0.896,1.731,1.593v-2.051H70.246z
				 M66.849,25.575c0.608-0.35,1.088-0.844,1.435-1.488c0.349-0.642,0.524-1.373,0.524-2.195c0-0.82-0.175-1.554-0.524-2.198
				c-0.347-0.64-0.827-1.139-1.435-1.487c-0.609-0.348-1.291-0.524-2.042-0.524c-0.769,0-1.454,0.177-2.063,0.524
				c-0.609,0.349-1.089,0.848-1.437,1.487c-0.35,0.645-0.525,1.378-0.525,2.198c0,0.822,0.175,1.554,0.525,2.195
				c0.348,0.645,0.828,1.139,1.437,1.488c0.609,0.351,1.294,0.524,2.063,0.524C65.559,26.1,66.24,25.926,66.849,25.575z"/>
		</g>
		<g>
			<path fill="#CE6B14" d="M7.025,33.037l-0.917-1.292c-0.104,0.014-0.211,0.018-0.324,0.018h-1.08v1.274H4.279v-4.026h1.505
				c0.515,0,0.917,0.126,1.208,0.373c0.292,0.243,0.437,0.58,0.437,1.012c0,0.312-0.081,0.577-0.238,0.793
				c-0.16,0.22-0.386,0.375-0.682,0.471l0.984,1.378H7.025z M6.688,31.135c0.211-0.176,0.316-0.424,0.316-0.739
				c0-0.328-0.105-0.576-0.316-0.75c-0.21-0.176-0.516-0.262-0.913-0.262H4.705v2.015h1.071C6.172,31.398,6.478,31.313,6.688,31.135
				z"/>
		</g>
		<g>
			<path fill="#CE6B14" d="M11.309,32.579c-0.166,0.156-0.386,0.277-0.66,0.364c-0.273,0.085-0.577,0.127-0.911,0.127
				c-0.351,0-0.649-0.047-0.897-0.143c-0.248-0.095-0.435-0.227-0.556-0.396c-0.128-0.17-0.189-0.36-0.189-0.581
				c0-0.239,0.072-0.443,0.215-0.613c0.146-0.171,0.333-0.286,0.567-0.352c-0.192-0.072-0.341-0.188-0.447-0.349
				c-0.11-0.159-0.162-0.346-0.162-0.558c0-0.205,0.058-0.39,0.176-0.556c0.117-0.167,0.292-0.301,0.53-0.397
				c0.234-0.099,0.519-0.145,0.853-0.145c0.245,0,0.483,0.025,0.715,0.08c0.232,0.058,0.429,0.138,0.593,0.241l-0.132,0.34
				c-0.351-0.199-0.738-0.301-1.16-0.301c-0.372,0-0.657,0.07-0.854,0.212c-0.198,0.142-0.296,0.327-0.296,0.555
				c0,0.224,0.08,0.398,0.238,0.52c0.159,0.123,0.384,0.186,0.675,0.186h1v0.366H9.591c-0.332,0-0.593,0.063-0.783,0.189
				c-0.191,0.122-0.288,0.31-0.288,0.555c0,0.241,0.104,0.432,0.313,0.573c0.209,0.142,0.516,0.212,0.923,0.212
				c0.283,0,0.546-0.04,0.792-0.119c0.246-0.081,0.444-0.192,0.598-0.334L11.309,32.579z"/>
		</g>
		<g>
			<path fill="#CE6B14" d="M12.618,29.627c-0.195,0.179-0.292,0.435-0.292,0.772v0.563h1.92v0.368h-1.92v1.707h-0.425v-2.642
				c0-0.443,0.136-0.788,0.413-1.039c0.277-0.249,0.665-0.375,1.167-0.375c0.487,0,0.878,0.104,1.173,0.313l-0.155,0.352
				c-0.26-0.191-0.595-0.289-0.999-0.289C13.104,29.357,12.81,29.448,12.618,29.627z"/>
		</g>
		<g>
			<path fill="#CE6B14" d="M18.653,29.011v4.026h-0.408v-0.678c-0.263,0.476-0.715,0.711-1.351,0.711
				c-0.478,0-0.854-0.143-1.126-0.431c-0.272-0.286-0.407-0.693-0.407-1.23v-2.398h0.425v2.388c0,0.426,0.104,0.748,0.314,0.967
				c0.207,0.218,0.499,0.328,0.875,0.328c0.393,0,0.702-0.116,0.921-0.349c0.221-0.232,0.331-0.579,0.331-1.042v-2.292H18.653z"/>
		</g>
		<g>
			<path fill="#CE6B14" d="M22.798,31.025h0.409v2.012h-0.373v-0.339c-0.155,0.123-0.334,0.217-0.539,0.277
				c-0.206,0.065-0.424,0.095-0.657,0.095c-0.36,0-0.695-0.079-1.004-0.238c-0.308-0.163-0.555-0.395-0.745-0.701
				c-0.186-0.309-0.282-0.672-0.282-1.094c0-0.39,0.093-0.742,0.276-1.055c0.184-0.312,0.437-0.557,0.761-0.734
				c0.318-0.181,0.685-0.267,1.092-0.267c0.306,0,0.587,0.046,0.845,0.145c0.256,0.097,0.472,0.244,0.649,0.434l-0.263,0.271
				c-0.319-0.314-0.723-0.473-1.216-0.473c-0.326,0-0.619,0.075-0.882,0.218c-0.261,0.144-0.466,0.345-0.618,0.602
				c-0.149,0.256-0.224,0.543-0.224,0.86c0,0.342,0.075,0.638,0.227,0.888c0.152,0.252,0.354,0.444,0.605,0.575
				c0.251,0.133,0.519,0.198,0.808,0.198c0.21,0,0.415-0.036,0.61-0.106c0.197-0.071,0.372-0.179,0.521-0.323V31.025z"/>
		</g>
		<g>
			<path fill="#CE6B14" d="M25.241,29.384v3.285h0.815v0.368h-2.052v-0.368h0.816v-3.285h-0.816v-0.373h2.052v0.373H25.241z"/>
		</g>
		<g>
			<path fill="#CE6B14" d="M27.612,32.805c-0.323-0.179-0.577-0.424-0.759-0.732c-0.182-0.31-0.273-0.659-0.273-1.047
				c0-0.387,0.091-0.734,0.273-1.045c0.182-0.31,0.436-0.555,0.759-0.732c0.324-0.181,0.685-0.267,1.084-0.267
				c0.398,0,0.757,0.086,1.077,0.264c0.32,0.176,0.57,0.422,0.755,0.733c0.183,0.31,0.275,0.66,0.275,1.047
				c0,0.388-0.092,0.737-0.275,1.049c-0.185,0.313-0.435,0.559-0.755,0.732c-0.32,0.176-0.679,0.264-1.077,0.264
				C28.297,33.07,27.936,32.982,27.612,32.805z M29.557,32.478c0.258-0.145,0.458-0.343,0.604-0.596
				c0.145-0.258,0.218-0.541,0.218-0.856c0-0.314-0.073-0.599-0.218-0.853c-0.146-0.256-0.346-0.454-0.604-0.598
				c-0.257-0.143-0.544-0.218-0.861-0.218c-0.318,0-0.608,0.075-0.866,0.218c-0.259,0.144-0.462,0.342-0.608,0.598
				C27.074,30.427,27,30.711,27,31.025c0,0.315,0.073,0.599,0.222,0.856c0.146,0.253,0.349,0.451,0.608,0.596
				c0.258,0.143,0.547,0.216,0.866,0.216C29.013,32.693,29.3,32.62,29.557,32.478z"/>
		</g>
		<g>
			<path fill="#CE6B14" d="M33.263,29.011h1.639c0.425,0,0.803,0.091,1.126,0.26c0.326,0.171,0.578,0.407,0.758,0.712
				c0.181,0.306,0.271,0.653,0.271,1.043c0,0.393-0.089,0.737-0.271,1.044c-0.18,0.304-0.432,0.543-0.758,0.712
				c-0.324,0.173-0.702,0.256-1.126,0.256h-1.639V29.011z M34.879,32.669c0.354,0,0.661-0.069,0.927-0.21
				c0.265-0.141,0.468-0.333,0.614-0.577c0.146-0.251,0.219-0.536,0.219-0.856s-0.074-0.606-0.219-0.853
				c-0.146-0.247-0.349-0.442-0.614-0.58c-0.266-0.14-0.573-0.209-0.927-0.209H33.69v3.285H34.879z"/>
		</g>
		<g>
			<path fill="#CE6B14" d="M40.886,32.579c-0.165,0.156-0.385,0.277-0.659,0.364c-0.274,0.085-0.578,0.127-0.91,0.127
				c-0.353,0-0.652-0.047-0.899-0.143c-0.249-0.095-0.432-0.227-0.558-0.396c-0.124-0.17-0.186-0.36-0.186-0.581
				c0-0.239,0.07-0.443,0.214-0.613c0.145-0.171,0.333-0.286,0.566-0.352c-0.191-0.072-0.34-0.188-0.449-0.349
				c-0.107-0.159-0.16-0.346-0.16-0.558c0-0.205,0.058-0.39,0.175-0.556c0.118-0.167,0.294-0.301,0.529-0.397
				c0.237-0.099,0.52-0.145,0.854-0.145c0.246,0,0.484,0.025,0.716,0.08c0.231,0.058,0.431,0.138,0.594,0.241l-0.132,0.34
				c-0.351-0.199-0.74-0.301-1.159-0.301c-0.373,0-0.657,0.07-0.855,0.212c-0.197,0.142-0.295,0.327-0.295,0.555
				c0,0.224,0.08,0.398,0.239,0.52c0.157,0.123,0.385,0.186,0.674,0.186h1.002v0.366h-1.018c-0.331,0-0.592,0.063-0.782,0.189
				c-0.194,0.122-0.288,0.31-0.288,0.555c0,0.241,0.104,0.432,0.314,0.573c0.208,0.142,0.516,0.212,0.92,0.212
				c0.285,0,0.55-0.04,0.795-0.119c0.245-0.081,0.442-0.192,0.597-0.334L40.886,32.579z"/>
		</g>
		<g>
			<path fill="#CE6B14" d="M41.656,29.011h0.425v3.658h2.251v0.368h-2.677V29.011z"/>
		</g>
		<g>
			<path fill="#CE6B14" d="M49.891,29.011l-1.782,4.026h-0.417l-1.783-4.026h0.458l1.542,3.498l1.551-3.498H49.891z"/>
		</g>
		<g>
			<path fill="#CE6B14" d="M51.391,29.384v3.285h0.816v0.368h-2.053v-0.368h0.817v-3.285h-0.817v-0.373h2.053v0.373H51.391z"/>
		</g>
		<g>
			<path fill="#CE6B14" d="M55.993,29.438c0.3,0.303,0.45,0.744,0.45,1.317v2.282h-0.419v-1.186h-2.53v1.186h-0.414v-2.282
				c0-0.573,0.15-1.015,0.452-1.317c0.301-0.305,0.709-0.456,1.227-0.456C55.281,28.981,55.692,29.133,55.993,29.438z
				 M56.024,31.487v-0.772c0-0.446-0.11-0.786-0.333-1.015c-0.223-0.226-0.534-0.343-0.931-0.343c-0.399,0-0.71,0.117-0.931,0.343
				c-0.223,0.229-0.335,0.568-0.335,1.015v0.772H56.024z"/>
		</g>
		<g>
			<path fill="#CE6B14" d="M57.501,33.497c-0.196-0.1-0.353-0.24-0.476-0.427l0.241-0.285c0.111,0.16,0.24,0.28,0.385,0.367
				c0.145,0.084,0.305,0.127,0.477,0.127c0.502,0,0.752-0.297,0.752-0.885v-3.011h-1.472v-0.373h1.893v3.365
				c0,0.421-0.1,0.741-0.294,0.95c-0.2,0.213-0.49,0.321-0.872,0.321C57.904,33.647,57.693,33.597,57.501,33.497z"/>
		</g>
		<g>
			<path fill="#CE6B14" d="M63.457,32.579c-0.165,0.156-0.387,0.277-0.659,0.364c-0.273,0.085-0.577,0.127-0.911,0.127
				c-0.353,0-0.651-0.047-0.899-0.143c-0.248-0.095-0.434-0.227-0.558-0.396c-0.124-0.17-0.186-0.36-0.186-0.581
				c0-0.239,0.071-0.443,0.214-0.613c0.144-0.171,0.334-0.286,0.566-0.352c-0.191-0.072-0.338-0.188-0.448-0.349
				c-0.107-0.159-0.162-0.346-0.162-0.558c0-0.205,0.06-0.39,0.176-0.556c0.12-0.167,0.293-0.301,0.53-0.397
				c0.235-0.099,0.521-0.145,0.854-0.145c0.245,0,0.485,0.025,0.715,0.08c0.231,0.058,0.43,0.138,0.595,0.241l-0.134,0.34
				c-0.35-0.199-0.738-0.301-1.159-0.301c-0.371,0-0.658,0.07-0.855,0.212c-0.196,0.142-0.295,0.327-0.295,0.555
				c0,0.224,0.079,0.398,0.238,0.52c0.158,0.123,0.384,0.186,0.674,0.186h1.001v0.366h-1.017c-0.331,0-0.589,0.063-0.782,0.189
				c-0.193,0.122-0.287,0.31-0.287,0.555c0,0.241,0.104,0.432,0.313,0.573c0.208,0.142,0.516,0.212,0.921,0.212
				c0.285,0,0.548-0.04,0.794-0.119c0.245-0.081,0.443-0.192,0.597-0.334L63.457,32.579z"/>
		</g>
		<g>
			<path fill="#CE6B14" d="M66.975,33.037l-0.919-1.292c-0.104,0.014-0.212,0.018-0.322,0.018h-1.081v1.274h-0.427v-4.026h1.508
				c0.511,0,0.914,0.126,1.206,0.373c0.291,0.243,0.436,0.58,0.436,1.012c0,0.312-0.079,0.577-0.238,0.793
				c-0.16,0.22-0.386,0.375-0.681,0.471l0.982,1.378H66.975z M66.633,31.135c0.211-0.176,0.317-0.424,0.317-0.739
				c0-0.328-0.106-0.576-0.317-0.75c-0.208-0.176-0.514-0.262-0.913-0.262h-1.068v2.015h1.068
				C66.119,31.398,66.425,31.313,66.633,31.135z"/>
		</g>
		<g>
			<path fill="#CE6B14" d="M69.057,32.805c-0.323-0.179-0.577-0.424-0.759-0.732c-0.182-0.31-0.272-0.659-0.272-1.047
				c0-0.387,0.09-0.734,0.272-1.045c0.182-0.31,0.436-0.555,0.759-0.732c0.324-0.181,0.685-0.267,1.083-0.267
				c0.398,0,0.756,0.086,1.077,0.264c0.321,0.176,0.573,0.422,0.756,0.733c0.184,0.31,0.276,0.66,0.276,1.047
				c0,0.388-0.092,0.737-0.276,1.049c-0.184,0.313-0.436,0.559-0.756,0.732c-0.32,0.176-0.678,0.264-1.077,0.264
				C69.742,33.07,69.381,32.982,69.057,32.805z M71.003,32.478c0.254-0.145,0.457-0.343,0.601-0.596
				c0.148-0.258,0.22-0.541,0.22-0.856c0-0.314-0.071-0.599-0.22-0.853c-0.144-0.256-0.347-0.454-0.601-0.598
				c-0.257-0.143-0.546-0.218-0.863-0.218c-0.318,0-0.607,0.075-0.864,0.218c-0.261,0.144-0.464,0.342-0.611,0.598
				c-0.147,0.254-0.222,0.538-0.222,0.853c0,0.315,0.075,0.599,0.222,0.856c0.147,0.253,0.35,0.451,0.611,0.596
				c0.257,0.143,0.545,0.216,0.864,0.216C70.458,32.693,70.747,32.62,71.003,32.478z"/>
		</g>
	</g>
</g>
<g id="Capa_1">
</g>
</svg>
